<svg width="20" height="23" viewBox="0 0 20 23" fill="none" xmlns="http://www.w3.org/2000/svg">
<path d="M19.7161 4.9096C19.8007 4.82741 19.8678 4.72984 19.9137 4.62245C19.9594 4.51506 19.983 4.39997 19.983 4.28373C19.983 4.16749 19.9594 4.05241 19.9137 3.94501C19.8678 3.83762 19.8007 3.74005 19.7161 3.65787C19.6314 3.57569 19.5309 3.51049 19.4203 3.466C19.3097 3.4215 19.1912 3.39863 19.0715 3.39863C18.9517 3.39863 18.8332 3.4215 18.7226 3.466C18.612 3.51049 18.5115 3.57569 18.4269 3.65787L16.2904 5.74998C14.754 4.52143 12.8738 3.76809 10.8922 3.5871V1.76922H12.7144C12.956 1.76922 13.1877 1.67603 13.3586 1.51013C13.5295 1.34423 13.6255 1.11922 13.6255 0.884612C13.6255 0.649999 13.5295 0.424994 13.3586 0.259098C13.1877 0.0931983 12.956 0 12.7144 0H7.2479C7.00628 0 6.7745 0.0931983 6.60367 0.259098C6.4328 0.424994 6.33682 0.649999 6.33682 0.884612C6.33682 1.11922 6.4328 1.34423 6.60367 1.51013C6.7745 1.67603 7.00628 1.76922 7.2479 1.76922H9.07006V3.59152C-3.54842 5.11306 -2.774 22.5576 9.98114 22.9999C18.4861 23.0353 23.1235 13.1542 17.6069 6.97074L19.7161 4.9096ZM12.7964 17.4534L9.1885 11.845C9.09862 11.7042 9.05129 11.5417 9.05184 11.3761V7.61651C9.05184 7.38191 9.14782 7.15691 9.3187 6.991C9.48952 6.82509 9.72126 6.73189 9.96292 6.73189C10.2045 6.73189 10.4363 6.82509 10.6071 6.991C10.778 7.15691 10.874 7.38191 10.874 7.61651V11.124L14.3407 16.5157C14.4605 16.7143 14.4958 16.9504 14.4392 17.1739C14.3826 17.3974 14.2385 17.5907 14.0376 17.7128C13.8366 17.8348 13.5945 17.876 13.3628 17.8276C13.131 17.7791 12.9279 17.6449 12.7964 17.4534Z" fill="white"/>
</svg>

